<svg xmlns="http://www.w3.org/2000/svg" width="11.783" height="13.188" viewBox="0 0 11.783 13.188">
  <path id="保存" d="M110.138,102.4a1.4,1.4,0,0,1,1.047.489l2.572,2.909a1.755,1.755,0,0,1,.426,1.16v7.6a.98.98,0,0,1-.921,1.03h-9.942a.98.98,0,0,1-.921-1.03V103.43a.98.98,0,0,1,.921-1.03Zm.639,7.144h-4.971a.49.49,0,0,0-.46.515v5.529h.982v-4.945h3.928v4.945h.982v-5.529A.49.49,0,0,0,110.777,109.544Zm-4.419-4.156H104.7a.1.1,0,0,0-.092.1v.824a.1.1,0,0,0,.092.1h1.657a.1.1,0,0,0,.092-.1v-.824A.1.1,0,0,0,106.358,105.388Z" transform="translate(-102.4 -102.4)" fill="#fff"/>
</svg>
