<svg xmlns="http://www.w3.org/2000/svg" width="14" height="14" viewBox="0 0 14 14">
  <g id="组_6126" data-name="组 6126" transform="translate(-320 -227)">
    <g id="矩形_1050" data-name="矩形 1050" transform="translate(320 227)" fill="#fff" stroke="#107efa" stroke-width="0.5">
      <rect width="14" height="14" rx="2" stroke="none"/>
      <rect x="0.25" y="0.25" width="13.5" height="13.5" rx="1.75" fill="none"/>
    </g>
    <g id="_1.Bace基础_3.Icon图标_操作_edit" data-name="1.Bace基础/3.Icon图标/操作/edit" transform="translate(322 229)">
      <rect id="edit_Background_" data-name="edit (Background)" width="10" height="10" fill="none"/>
      <path id="edit" d="M.187,8.024A.187.187,0,0,1,0,7.8L.455,5.542,5.016.981,7.043,3.008,2.482,7.569.224,8.021A.191.191,0,0,1,.187,8.024Zm4.83-6.159h0L1.031,5.85.745,7.279l1.429-.286L6.159,3.008,5.016,1.865Zm2.566.6h0L5.555.442,6,0,8.024,2.027l-.442.441Z" transform="translate(1.246 0.644)" fill="#107efa"/>
    </g>
  </g>
</svg>
